<svg width="24" height="11" viewBox="0 0 24 11" fill="none" xmlns="http://www.w3.org/2000/svg">
<path fill-rule="evenodd" clip-rule="evenodd" d="M22.1532 3.89324C21.2749 1.55173 19.036 6.10352e-05 16.5349 6.10352e-05C13.8509 6.10352e-05 10.1491 6.10352e-05 7.46513 6.10352e-05C4.96398 6.10352e-05 2.72512 1.55173 1.84683 3.89324C1.0154 6.1103 0.0633996 8.64898 0.0633996 8.64898C-0.0411721 8.92898 -0.0154572 9.24126 0.133686 9.49987C0.283401 9.75887 0.540551 9.93737 0.835409 9.98637C0.835409 9.98637 3.87998 10.5001 12 10.5001C20.12 10.5001 23.1646 9.98637 23.1646 9.98637C23.4595 9.93737 23.7166 9.75887 23.8663 9.49987C24.0155 9.24126 24.0412 8.92898 23.9366 8.64898L22.1532 3.89324ZM20.2806 4.59557C19.6949 3.03457 18.2023 2.00012 16.5349 2.00012C13.8509 2.00012 10.1491 2.00012 7.46513 2.00012C5.7977 2.00012 4.30513 3.03457 3.71941 4.59557L2.38512 8.15508C3.90284 8.29897 6.93371 8.50003 12 8.50003C17.0663 8.50003 20.0972 8.29897 21.6149 8.15508L20.2806 4.59557Z" fill="#F77A40"/>
</svg>
