<svg width="16" height="25" viewBox="0 0 16 25" fill="none" xmlns="http://www.w3.org/2000/svg">
<path fill-rule="evenodd" clip-rule="evenodd" d="M2.00002 23.0001H10.4998C11.0519 23.0001 11.4999 23.448 11.4999 24C11.4999 24.552 11.0519 24.9999 10.4998 24.9999H0.999886C0.447761 24.9999 -0.000244141 24.552 -0.000244141 24V0.999985C-0.000244141 0.447985 0.447761 6.10352e-05 0.999886 6.10352e-05H14.9999C15.552 6.10352e-05 16 0.447985 16 0.999985V24C16 24.552 15.552 24.9999 14.9999 24.9999H14.4998C13.9481 24.9999 13.4997 24.552 13.4997 24C13.4997 23.6303 13.7009 23.3071 13.9998 23.134V1.99991H2.00002V23.0001Z" fill="#F77A40"/>
</svg>
