<svg width="28" height="19" viewBox="0 0 28 19" fill="none" xmlns="http://www.w3.org/2000/svg">
<path fill-rule="evenodd" clip-rule="evenodd" d="M21.4649 4.49997L23.1679 1.94548C23.2914 1.76048 23.4729 1.62147 23.6839 1.55147L26.6839 0.551472C27.0219 0.438472 27.3944 0.514477 27.6619 0.750477C27.9289 0.985977 28.0504 1.34647 27.9804 1.69597L27.0479 6.35947L27.8944 8.05298C28.0869 8.43797 28.0114 8.90247 27.7069 9.20697L25.7069 11.207C25.5194 11.3945 25.2649 11.5 24.9999 11.5H19.9999C19.4479 11.5 18.9999 11.052 18.9999 10.5C18.9999 9.94797 19.4479 9.49997 19.9999 9.49997H24.5859L25.7829 8.30247L25.1054 6.94697C25.0059 6.74847 24.9759 6.52197 25.0194 6.30397L25.6814 2.99347L24.6414 3.33997L22.8319 6.05447C22.6464 6.33297 22.3344 6.49997 21.9999 6.49997H3.99992C3.85492 6.49997 3.70241 6.58697 3.53991 6.68497C3.27291 6.84547 3.00791 7.07047 2.77091 7.31747C2.53041 7.56797 2.31841 7.84198 2.16792 8.10498C2.08241 8.25498 1.99992 8.38597 1.99992 8.49997C1.99992 8.74247 2.20091 8.95748 2.39791 9.13948C2.59841 9.32448 2.81642 9.49997 2.99992 9.49997H7.99992C8.24192 9.49997 8.47591 9.58797 8.65841 9.74747L16.3754 16.5H18.0569L14.1864 11.081C13.9684 10.7765 13.9394 10.3755 14.1109 10.0425C14.2819 9.70948 14.6254 9.49997 14.9999 9.49997H15.9999C16.5519 9.49997 16.9999 9.94797 16.9999 10.5C16.9999 10.768 16.8944 11.0115 16.7224 11.191L20.8134 16.919C21.0314 17.2235 21.0604 17.6245 20.8889 17.9575C20.7179 18.2905 20.3744 18.5 19.9999 18.5H15.9999C15.7579 18.5 15.5239 18.412 15.3414 18.2525L7.62441 11.5H2.99992C2.43742 11.5 1.65691 11.1765 1.04241 10.6105C0.425911 10.0415 -8.39233e-05 9.25797 -8.39233e-05 8.49997C-8.39233e-05 7.82747 0.52092 6.77348 1.32792 5.93248C2.13542 5.09098 3.19092 4.49997 3.99992 4.49997H21.4649Z" fill="#F77A40"/>
</svg>
