<svg width="18" height="21" viewBox="0 0 18 21" fill="none" xmlns="http://www.w3.org/2000/svg">
<path d="M17.4599 8.13C17.3195 6.66892 16.8031 5.26909 15.9611 4.06682C15.119 2.86456 13.98 1.90083 12.6549 1.2695C11.3298 0.638159 9.86376 0.360724 8.3996 0.464207C6.93543 0.56769 5.52301 1.04856 4.29988 1.86C3.24908 2.56265 2.36693 3.4893 1.71682 4.57339C1.06672 5.65749 0.664776 6.87211 0.539881 8.13C0.417363 9.37966 0.574555 10.6409 1.00005 11.8223C1.42555 13.0036 2.10868 14.0755 2.99988 14.96L8.29988 20.27C8.39284 20.3637 8.50344 20.4381 8.6253 20.4889C8.74716 20.5397 8.87787 20.5658 9.00988 20.5658C9.14189 20.5658 9.2726 20.5397 9.39446 20.4889C9.51632 20.4381 9.62692 20.3637 9.71988 20.27L14.9999 14.96C15.8911 14.0755 16.5742 13.0036 16.9997 11.8223C17.4252 10.6409 17.5824 9.37966 17.4599 8.13ZM13.5999 13.55L8.99988 18.15L4.39988 13.55C3.72197 12.8721 3.20268 12.0523 2.87935 11.1498C2.55601 10.2472 2.43667 9.2842 2.52988 8.33C2.6237 7.36111 2.93164 6.42516 3.43145 5.58985C3.93126 4.75453 4.61044 4.04071 5.41988 3.5C6.48083 2.79524 7.72619 2.4193 8.99988 2.4193C10.2736 2.4193 11.5189 2.79524 12.5799 3.5C13.3869 4.03862 14.0646 4.74928 14.5642 5.58094C15.0639 6.4126 15.3732 7.34461 15.4699 8.31C15.5661 9.26743 15.4483 10.2343 15.1249 11.1406C14.8014 12.0468 14.2805 12.8698 13.5999 13.55ZM8.99988 4.5C8.10986 4.5 7.23984 4.76392 6.49982 5.25839C5.75979 5.75286 5.18302 6.45566 4.84242 7.27793C4.50183 8.1002 4.41271 9.005 4.58635 9.87791C4.75998 10.7508 5.18856 11.5526 5.8179 12.182C6.44724 12.8113 7.24906 13.2399 8.12197 13.4135C8.99489 13.5872 9.89969 13.4981 10.722 13.1575C11.5442 12.8169 12.247 12.2401 12.7415 11.5001C13.236 10.76 13.4999 9.89002 13.4999 9C13.4972 7.80734 13.0223 6.66428 12.1789 5.82094C11.3356 4.9776 10.1925 4.50265 8.99988 4.5ZM8.99988 11.5C8.50543 11.5 8.02208 11.3534 7.61096 11.0787C7.19983 10.804 6.8794 10.4135 6.69018 9.95671C6.50096 9.4999 6.45145 8.99723 6.54792 8.51228C6.64438 8.02733 6.88248 7.58187 7.23211 7.23224C7.58175 6.88261 8.0272 6.6445 8.51215 6.54804C8.99711 6.45158 9.49977 6.50109 9.95659 6.6903C10.4134 6.87952 10.8039 7.19996 11.0786 7.61108C11.3533 8.0222 11.4999 8.50555 11.4999 9C11.4999 9.66304 11.2365 10.2989 10.7676 10.7678C10.2988 11.2366 9.66292 11.5 8.99988 11.5Z" fill="#F77A40"/>
</svg>
